<?xml version="1.0" encoding="utf-8"?>
<!-- Generator: Adobe Illustrator 27.5.0, SVG Export Plug-In . SVG Version: 6.00 Build 0)  -->
<svg version="1.1" xmlns="http://www.w3.org/2000/svg" xmlns:xlink="http://www.w3.org/1999/xlink" x="0px" y="0px"
	 viewBox="0 0 750 500" style="enable-background:new 0 0 750 500;" xml:space="preserve">
<g id="BACKGROUND">
	<rect style="fill:#FFFFFF;" width="750" height="500"/>
</g>
<g id="OBJECTS">
	<g>
		<g style="opacity:0.56;">
			<g>
				<rect x="215.645" y="88.738" style="fill:#91D3FF;" width="350.811" height="122.168"/>
			</g>
		</g>
		<g style="opacity:0.48;">
			<g>
				<rect x="214.381" y="41.858" style="fill:#91D3FF;" width="350.811" height="33.954"/>
			</g>
		</g>
		<g>
			<g>
				<path style="fill:#91D3FF;" d="M644.641,366.419c7.118-108.837,15.34-286.883-6.132-297.705
					c-6.394-3.223-29.971-6.319-63.829-8.765v155.523H202.92V65.769c-41.5,5.65-72.64,13.794-84.53,25.116
					c-35.562,33.863-10.069,180.459,20.541,275.533c72.933-6.029,151.252-9.877,234.37-10.378
					C470.391,355.456,561.144,359.517,644.641,366.419z"/>
			</g>
		</g>
		
			<rect x="206.578" y="41.858" style="fill:none;stroke:#91D3FF;stroke-width:2;stroke-miterlimit:10;" width="365.076" height="156.726"/>
		<g>
			<g>
				<ellipse style="fill:#91D3FF;" cx="385.634" cy="407.68" rx="299.849" ry="34.469"/>
			</g>
		</g>
		<g style="opacity:0.41;">
			<g>
				<ellipse style="fill:#91D3FF;" cx="430.425" cy="401.599" rx="54.125" ry="10.122"/>
			</g>
		</g>
		<g style="opacity:0.41;">
			<g>
				<ellipse style="fill:#91D3FF;" cx="282.787" cy="415.069" rx="112.315" ry="13.471"/>
			</g>
		</g>
	</g>
	<g>
		<g>
			<g>
				<g>
					<g>
						<g>
							<g>
								<g>
									<g>
										<g>
											<g>
												<path style="fill:#A2493B;" d="M449.208,228.967c1.818-0.13,3.685-0.351,5.509-0.309
													c2.526,0.057,2.336-0.014,2.89,2.528c1.011,4.64,1.876,9.298,2.482,14.009c1.203,9.361,1.527,18.834,0.97,28.255
													c-0.284,4.806-0.797,9.6-1.539,14.357c-0.672,4.31-2.465,8.664-2.831,12.981c-0.007,0.089-0.014,0.178-0.02,0.268
													c-0.356,5.476,1.66,11.126,2.476,16.517c0.914,6.034,1.391,12.135,1.434,18.238c0.057,8.081-0.647,16.167-2.106,24.115
													c-2.023,11.026-5.208,22.258-4.408,33.563c0.062,0.881,0.135,1.812-0.269,2.604c-0.01,0.02-0.022,0.04-0.035,0.06
													c-0.846,1.279-7.325,1.462-7.42,0.841c-2.05-13.338-3.379-26.844-5.686-40.124c-2.238-12.886-0.646-26.275-2.639-39.285
													c-1.467-9.576-1.834-19.154-3.038-28.858c-1.054-8.495-2.328-16.961-3.823-25.389
													c-0.468-2.642-3.855-32.794-4.792-32.794C433.996,230.542,441.605,229.512,449.208,228.967z"/>
											</g>
										</g>
									</g>
								</g>
							</g>
							<g>
								<g>
									<g>
										<g>
											<g>
												<path style="fill:#A2493B;" d="M396.47,246.672c0.334-3.479,0.33-15.969,3.522-17.675
													c1.435-0.767,5.133,0.133,6.716,0.254c2.769,0.211,5.533,0.497,8.297,0.768c5.11,0.501,10.278,1.116,15.422,0.946
													c-0.004,0-0.026,0.219-0.028,0.23c-1.953,16.26-3.907,32.521-5.86,48.781c-0.768,6.396-1.612,12.787-2.31,19.19
													c-2.137,19.596,0.991,39.403-1.716,58.961c-1.16,8.384-2.396,16.393-3.211,24.847
													c-0.48,4.981-0.746,10.059-1.497,15.009c-0.065,0.624-6.555,0.658-7.444-0.594c-0.014-0.019-0.026-0.039-0.037-0.059
													c-0.43-0.778-0.389-1.711-0.355-2.594c0.64-17.064-5.636-33.059-7.02-49.803c-0.496-5.999-0.897-12.196-0.502-18.213
													c0.347-5.292,1.681-10.377,1.491-15.833c-0.154-4.442-1.197-8.852-1.74-13.236c-1.324-10.705-4.109-21.116-4.391-31.96
													C395.643,259.346,395.864,252.991,396.47,246.672z"/>
											</g>
										</g>
									</g>
								</g>
							</g>
						</g>
					</g>
					<g>
						<g>
							<g>
								<g>
									<path style="fill:#FFFFFF;" d="M477.336,174.419c-0.422-1.254-1.447-2.351-1.39-3.673c0.044-1.028,0.745-1.91,0.982-2.911
										c0.453-1.916-0.834-3.767-2.047-5.317c-3.173-4.054-6.346-8.107-9.518-12.161c-3.007-3.842-6.034-7.705-9.644-10.987
										c-3.274-2.975-6.905-5.181-11.062-6.673c-4.184-1.501-8.762-0.1-12.887-2.281l2.964,3.659
										c3.703,2.9,7.454,5.849,10.253,9.63c5.864,7.923,6.785,18.301,8.873,27.934c0.434,2.004,0.965,4.073,2.28,5.646
										c1.081,1.293,2.253,3.12,4.117,3.023c1.099-0.057,2.288-0.367,3.24,0.185c0.868,0.504,1.309,1.624,2.259,1.947
										c1.391,0.473,2.628-1.03,4.045-1.42c2.313-0.637,4.225,0.282,6.256-1.748C477.303,178.027,477.899,176.089,477.336,174.419
										z"/>
								</g>
							</g>
						</g>
						<g>
							<g>
								<g>
									<path style="fill:#FFFFFF;" d="M409.227,136.512c-2.082-2.316-5.767-2.736-8.614-1.475
										c-2.848,1.261-4.896,3.917-6.054,6.808c-1.158,2.891-1.526,6.03-1.806,9.131c-1.186,13.127-0.988,26.378,0.59,39.463
										c-1.578,0.443-2.736,0.866-3.525,2.303c-0.789,1.437-0.973,3.194-0.5,4.764c-2.506,3.243-1.835,8.632,1.16,11.43
										c2.995,2.798,7.802,3.231,11.466,1.396c3.664-1.835,6.131-5.666,6.754-9.717
										C411.933,179.585,404.792,157.323,409.227,136.512z"/>
								</g>
							</g>
						</g>
						<g>
							<g>
								<g>
									<path style="fill:#FFFFFF;" d="M452.116,212.272c-2.484-11.138-2.962-22.733-1.279-34.025
										c1.829-12.271,5.444-25.52,1.252-37.707c-2.032-5.905-8.919-7.837-14.657-8.615c-4.798-0.651-9.667-0.391-14.502-0.13
										c-5.143,0.278-14.19,0.405-17.435,5.285c-2.826,4.25-3.942,11.934-4.811,16.88c-1.774,10.1,0.495,20.201,0.492,30.522
										c-0.004,11.759-0.648,24.671-3.945,36.122l57.431-0.167C453.641,217.772,452.739,215.068,452.116,212.272z"/>
								</g>
							</g>
						</g>
						<g>
							<g>
								<g>
									<path style="fill:#00C1A5;" d="M465.602,264.081c-0.401-9.039-1.744-18.061-4.351-26.735
										c-1.741-5.793-4.433-11.263-6.592-16.908l-57.431,0.167c-0.366,1.272-0.756,2.532-1.191,3.764
										c-3.543,10.046-5.673,20.589-6.324,31.222c-0.386,6.308-4.183,19.315,3.819,22.4c21.944,8.459,46.478,6.313,67.798-4.462
										C465.119,271.614,465.768,267.823,465.602,264.081z"/>
								</g>
							</g>
						</g>
						<g>
							<g>
								<g>
									<path style="fill:#00C1A5;" d="M433.452,136.87c0,0-2.662,45.157-1.399,84.686c-2.128,0.565-4.835,1.077-7.993,1.189
										c-4.334,0.153-7.96-0.502-10.552-1.189c-0.417-28.178-0.833-56.356-1.25-84.533"/>
								</g>
							</g>
						</g>
					</g>
					<g>
						<g>
							<g>
								<g>
									<g>
										<g>
											<g>
												<g>
													<g>
														<path style="fill:#00C1A5;" d="M407.537,133.141c2.758-2.904,8.538-3.743,12.314-3.782
															c0.812-0.009,1.79,0.129,2.122,0.87c0.376,0.84-0.365,1.716-0.932,2.441c-1.823,2.328-1.872,4.758-1.119,7.351
															l5.433-0.493c0.71-2.312,1.184-4.653,1.247-7.101c0.019-0.763,0.048-1.627,0.621-2.131
															c0.541-0.475,1.353-0.431,2.065-0.324c2.577,0.386,6.427,1.204,8.293,3.169c1.206,1.27,1.812,3.086,1.611,4.825
															c-0.036,0.314-0.108,0.645-0.332,0.868c-0.329,0.326-0.888,0.301-1.294,0.078c-0.406-0.223-0.701-0.6-1.003-0.951
															c-0.372-0.432-0.817-0.865-1.382-0.938c-0.73-0.095-1.121,0.877-1.469,1.747l0.068-0.006
															c-0.121,0.357-0.243,0.695-0.408,0.927c-0.652,0.92-1.45,1.732-2.341,2.422c-0.578,0.448-1.198,0.837-1.842,1.182
															c-0.204,0.138-0.41,0.284-0.613,0.412c-2.076,1.318-4.501,2.2-6.958,2.085c-3.908-0.184-7.672-2.998-9.872-6.1
															c-0.564-0.796-0.635-2.82-1.808-2.668c-0.566,0.073-1.012,0.506-1.383,0.938c-0.302,0.352-0.597,0.728-1.003,0.951
															c-0.406,0.223-0.965,0.248-1.294-0.078c-0.224-0.223-0.296-0.554-0.332-0.868
															C405.725,136.227,406.332,134.411,407.537,133.141z"/>
													</g>
												</g>
											</g>
										</g>
									</g>
									<g>
										<g>
											<g>
												<g>
													<g>
														<path style="fill:#A2493B;" d="M429.049,131.831c-0.469-0.471-0.847-1.083-1.12-1.971
															c-1.505-4.903-0.275-11.253-1.014-16.43c-3.441,0.968-7.678,1.956-7.758,5.895c-0.069,3.379,1.18,6.912,0.1,10.239
															c-0.636,1.959-2.787,3.622-4.236,5.01c2.3,3.592,4.599,7.184,6.899,10.775c4.183-2.792,8.229-5.553,11.001-9.859
															c0.167-0.259,0.336-0.554,0.282-0.858c-0.064-0.36-0.411-0.588-0.73-0.767
															C431.091,133.094,429.916,132.703,429.049,131.831z"/>
													</g>
												</g>
											</g>
										</g>
									</g>
									<g>
										<g>
											<g>
												<g>
													<g>
														<path style="fill:#381905;" d="M419.305,129.364c0.961-0.518,1.902-1.063,2.811-1.646
															c0.24-0.39,0.494-0.775,0.722-1.169c0.782-4.066,1.272-8.146,1.161-12.251c-2.54,0.87-4.784,2.172-4.842,5.028
															C419.089,122.637,420.274,126.096,419.305,129.364z"/>
													</g>
												</g>
											</g>
										</g>
									</g>
									<g>
										<g>
											<g>
												<g>
													<g>
														<path style="fill:#A2493B;" d="M417.198,88.22c-0.266-0.041-0.534-0.07-0.802-0.087
															c-4.146-0.262-8.005,2.418-10.66,5.356c-1.048,1.16-2.308,2.338-2.721,3.872c-0.634,2.356-0.413,5.252-0.584,7.686
															c-0.188,2.673-1.059,5.153-0.304,7.778c0.929,3.233,2.994,6.03,4.982,8.686c1.283,1.714,2.773,3.559,4.884,3.914
															c1.546,0.26,3.092-0.349,4.543-0.946c3.132-1.29,6.572-2.742,8.552-5.644c1.851-2.722,3.113-5.72,3.889-8.899
															c0.64-2.623,1.245-5.356,1.518-8.051c0.17-1.67,0.052-3.38-0.451-4.986C428.302,91.351,422.487,89.03,417.198,88.22z"
															/>
													</g>
												</g>
											</g>
										</g>
									</g>
								</g>
							</g>
						</g>
					</g>
					<g>
						<g>
							<g>
								<g>
									<g>
										<g>
											<g>
												<g>
													<g>
														<path style="fill:#381905;" d="M412.015,117.832c0.673-0.231,1.773-1.065,1.665-1.743
															c-0.109-0.683-1.405-0.337-2.013-0.378c-0.762-0.051-1.512-0.187-2.244-0.389c-0.714-0.197-1.636-0.41-1.648,0.375
															c-0.01,0.648,0.546,1.371,1.19,1.776C409.831,118.017,411.056,118.161,412.015,117.832z"/>
													</g>
												</g>
											</g>
										</g>
										<g>
											<g>
												<g>
													<g>
														<path style="fill:#FFFFFF;" d="M408.935,115.321c-0.006,0.015-0.008,0.033-0.006,0.056
															c0.008,0.13,0.29,0.313,0.407,0.393c0.615,0.42,1.516,0.567,2.279,0.511c0.26-0.019,0.518-0.076,0.733-0.186
															c0.108-0.055,0.493-0.301,0.202-0.386c-0.153-0.044-0.491,0.034-0.659,0.036c-0.436,0.005-0.876-0.029-1.31-0.1
															C410.404,115.616,408.978,115.198,408.935,115.321z"/>
													</g>
												</g>
											</g>
										</g>
									</g>
									<g>
										<g>
											<g>
												<g>
													<path style="fill:#381905;" d="M415.694,109.433c-0.809,1.244,0.809,2.276,1.188,0.705
														C417.1,109.233,416.319,108.474,415.694,109.433z"/>
												</g>
											</g>
										</g>
									</g>
									<g>
										<g>
											<g>
												<g>
													<path style="fill:#381905;" d="M404.878,108.635c0.67,1.324-1.05,2.175-1.257,0.572
														C403.501,108.284,404.361,107.614,404.878,108.635z"/>
												</g>
											</g>
										</g>
									</g>
								</g>
							</g>
						</g>
					</g>
					<g>
						<g>
							<g>
								<path style="fill:#381905;" d="M419.854,85.738c2.443,1.647,4.701,4.752,3.439,7.835c-0.584,1.427-2.794,1.91-4.207,2.363
									c-1.719,0.552-3.499,0.916-5.296,1.087c-1.654,0.158-3.325,0.151-4.977-0.024c-1.76-0.187-2.588-0.588-3.956,0.789
									c-1.539,1.55-1.532,3.364-1.89,5.349c-0.403,2.229-0.675,4.491-1.555,6.603c-1.077,2.587-3.164,4.942-5.909,5.505
									c0.82-1.093,1.174-2.46,1.438-3.801c0.685-3.483,0.884-7.042,1.405-10.552c0.521-3.511,1.393-7.043,3.281-10.049
									c1.888-3.006,4.923-5.442,8.439-5.924c2.853-0.392,5.709,0.502,8.45,1.384"/>
							</g>
						</g>
					</g>
					<g>
						<g>
							<g>
								<g>
									<g>
										<path style="fill:#381905;" d="M443.297,395.984c0.165-1.495,0.506-2.983,1.15-4.342c0.168-0.355,0.453-0.754,0.842-0.705
											c0.357,0.045,0.545,0.438,0.652,0.781c0.178,0.567,0.314,1.153,0.591,1.679c0.277,0.526,0.725,0.998,1.303,1.136
											c0.742,0.178,1.488-0.219,2.148-0.602c0.736-0.427,1.472-0.854,2.208-1.281c0.525-0.304,1.075-0.617,1.681-0.65
											c0.649-0.035,1.306,0.282,1.682,0.812c1.235,1.741,3.189,2.709,4.792,4.12c1.232,1.085,2.465,2.171,3.596,3.36
											c0.657,0.691,1.284,1.425,1.724,2.271c0.439,0.846,0.682,1.82,0.532,2.762c-0.08,0.499-0.743,0.412-1.245,0.468
											c-2.436,0.271-4.892-0.168-7.288-0.684c-1.929-0.415-3.859-0.885-5.668-1.673c-1.809-0.788-3.505-1.913-4.729-3.46
											C446.131,398.54,444.77,397.073,443.297,395.984z"/>
									</g>
								</g>
							</g>
							<g>
								<g>
									<g>
										<path style="fill:#381905;" d="M451.06,393.712c-0.51-0.373-0.626-1.123-0.417-1.72c0.209-0.597,0.673-1.066,1.154-1.475
											c1.083-0.92,2.319-1.641,3.547-2.357c0.316-0.184,0.639-0.371,0.998-0.44c0.359-0.069,0.766,0,1.016,0.267
											c0.435,0.466,0.198,1.223,0.354,1.841c0.104,0.413,0.384,0.755,0.657,1.083c2.871,3.447,5.756,6.801,9.249,9.645
											c0.479,0.39,0.985,0.797,1.221,1.367c-0.475,0.333-0.774,0.895-1.062,1.398c-0.288,0.503-0.676,1.015-1.241,1.146
											c-0.432,0.1-0.887-0.047-1.273-0.265c-0.755-0.426-1.326-1.107-1.922-1.737c-1.538-1.627-3.343-3.001-5.322-4.049"/>
									</g>
								</g>
							</g>
							<g>
								<g>
									<g>
										<path style="fill:#FFFFFF;" d="M443.481,394.772c0.042,0.005,0.089,0.026,0.141,0.066c0.11,0.084,0.172,0.214,0.237,0.336
											c0.629,1.177,1.826,1.951,3.068,2.438c1.242,0.487,2.564,0.737,3.827,1.167c2.849,0.97,5.309,2.824,8.058,4.05
											c1.197,0.534,2.448,0.946,3.727,1.23c1.223,0.272,2.538,0.215,3.731,0.501c0.239-0.649,0.47-1.234,0.958-1.748
											c0.275-0.289,1.141-1.108,1.584-1.038c0.698,0.111,1.381,0.309,2.033,0.582c0.524,0.22,1.313,0.5,1.592,1.004
											c0.607,1.097,0.684,2.603,0.439,3.805c-0.074,0.363-0.197,0.745-0.491,0.971c-0.242,0.186-0.558,0.235-0.86,0.278
											c-1.723,0.246-3.462,0.615-5.195,0.477c-1.898-0.151-3.828-0.418-5.559-1.256c-1.561-0.756-2.876-1.934-4.375-2.807
											c-3.063-1.785-6.712-2.203-10.047-3.406c-0.942-0.34-1.879-0.755-2.623-1.426c-0.802-0.723-1.196-1.677-1.078-2.754
											c0.056-0.508,0.207-1.002,0.382-1.48C443.123,395.518,443.176,394.733,443.481,394.772z"/>
									</g>
								</g>
							</g>
							<g>
								<g>
									<g>
										<path style="fill:#FFFFFF;" d="M464.332,402.352c-0.186-0.081-0.394-0.124-0.593-0.085
											c-0.525,0.102-0.697,0.788-0.218,1.058c0.381,0.215,1.208,0.356,1.32-0.245c0.029-0.157-0.026-0.323-0.124-0.449
											C464.617,402.505,464.478,402.416,464.332,402.352z M464.39,402.634c0.108,0.126,0.115,0.327,0.016,0.46
											c-0.099,0.133-0.295,0.184-0.446,0.116l0.036-0.029c-0.133-0.032-0.236-0.157-0.247-0.294
											c-0.011-0.136,0.068-0.274,0.188-0.339C464.083,402.471,464.282,402.508,464.39,402.634z"/>
									</g>
								</g>
							</g>
							<g>
								<g>
									<g>
										<path style="fill:#FFFFFF;" d="M463.564,402.465c0.513-0.69,1.089-1.332,1.719-1.918c0.262-0.243,0.539-0.481,0.871-0.614
											c0.331-0.133,0.729-0.147,1.03,0.046c0.073,0.047,0.145,0.116,0.147,0.203c0.003,0.109-0.102,0.187-0.194,0.246
											c-1.02,0.654-1.93,1.48-2.679,2.433c0.105-0.126,0.124-0.223,0.014-0.344c-0.11-0.121-0.282-0.169-0.446-0.165
											C463.862,402.358,463.719,402.414,463.564,402.465z"/>
									</g>
								</g>
							</g>
							<g>
								<g>
									<g>
										<path style="fill:#FFFFFF;" d="M462.447,400.696c-0.186-0.081-0.394-0.124-0.593-0.085
											c-0.525,0.102-0.697,0.788-0.218,1.058c0.381,0.215,1.207,0.356,1.32-0.245c0.03-0.157-0.025-0.323-0.124-0.449
											C462.733,400.849,462.594,400.76,462.447,400.696z M462.505,400.978c0.108,0.126,0.115,0.327,0.016,0.461
											c-0.099,0.133-0.294,0.184-0.446,0.116l0.036-0.029c-0.133-0.032-0.236-0.157-0.247-0.294
											c-0.011-0.136,0.068-0.274,0.188-0.339C462.199,400.815,462.397,400.852,462.505,400.978z"/>
									</g>
								</g>
							</g>
							<g>
								<g>
									<g>
										<path style="fill:#FFFFFF;" d="M461.679,400.809c0.782-1.051,1.662-2.056,2.973-2.409
											c0.161-0.043,0.327-0.077,0.494-0.064c0.166,0.014,0.334,0.08,0.441,0.207c-0.049-0.058-1.419,1.022-1.51,1.099
											c-0.551,0.469-1.056,0.993-1.504,1.563c0.105-0.125,0.124-0.223,0.014-0.344c-0.11-0.121-0.282-0.169-0.446-0.165
											C461.978,400.702,461.835,400.758,461.679,400.809z"/>
									</g>
								</g>
							</g>
							<g>
								<g>
									<g>
										<path style="fill:#FFFFFF;" d="M460.765,399.087c-0.156-0.13-0.343-0.23-0.545-0.249c-0.533-0.05-0.891,0.561-0.507,0.954
											c0.305,0.313,1.059,0.681,1.335,0.136c0.073-0.143,0.066-0.317,0.007-0.466
											C460.996,399.315,460.888,399.19,460.765,399.087z M460.742,399.374c0.069,0.151,0.018,0.347-0.114,0.447
											c-0.133,0.1-0.335,0.094-0.461-0.014l0.043-0.018c-0.119-0.068-0.183-0.217-0.155-0.351
											c0.028-0.134,0.142-0.244,0.276-0.272C460.493,399.131,460.673,399.223,460.742,399.374z"/>
									</g>
								</g>
							</g>
							<g>
								<g>
									<g>
										<path style="fill:#FFFFFF;" d="M459.997,398.979c0.168-0.005,0.572-0.411,0.724-0.511
											c0.238-0.157,0.484-0.335,0.744-0.455c0.453-0.209,0.785-0.603,1.247-0.819c0.414-0.194,0.898-0.271,1.331-0.126
											c0.136,0.046,0.286,0.144,0.278,0.288c-0.008,0.151-0.18,0.229-0.323,0.279c-0.613,0.214-1.194,0.516-1.724,0.891
											c-0.25,0.177-0.469,0.403-0.72,0.575c-0.261,0.178-0.547,0.332-0.812,0.509c0.136-0.091,0.182-0.179,0.11-0.326
											c-0.071-0.147-0.223-0.242-0.382-0.283C460.313,398.96,460.16,398.974,459.997,398.979z"/>
									</g>
								</g>
							</g>
							<g>
								<g>
									<g>
										<path style="fill:#FFFFFF;" d="M458.827,397.301c-0.156-0.13-0.343-0.229-0.545-0.248
											c-0.533-0.05-0.891,0.561-0.507,0.954c0.306,0.313,1.059,0.681,1.335,0.136c0.073-0.143,0.066-0.317,0.007-0.466
											C459.058,397.528,458.95,397.403,458.827,397.301z M458.804,397.587c0.069,0.151,0.018,0.347-0.114,0.447
											c-0.133,0.1-0.334,0.093-0.461-0.014l0.043-0.018c-0.119-0.068-0.182-0.217-0.155-0.351
											c0.028-0.134,0.142-0.244,0.276-0.272C458.555,397.345,458.736,397.436,458.804,397.587z"/>
									</g>
								</g>
							</g>
							<g>
								<g>
									<g>
										<path style="fill:#FFFFFF;" d="M458.059,397.193c0.441-0.013,1.583-1.026,2.017-1.269
											c0.769-0.431,1.784-1.049,2.572-0.332c0.072,0.065,0.141,0.165,0.099,0.252c-0.035,0.072-0.126,0.092-0.206,0.106
											c-0.745,0.13-1.283,0.484-1.923,0.844c-0.608,0.342-1.225,0.638-1.813,1.031c0.136-0.091,0.182-0.179,0.111-0.326
											c-0.072-0.147-0.224-0.242-0.382-0.283C458.375,397.174,458.222,397.188,458.059,397.193z"/>
									</g>
								</g>
							</g>
							<g>
								<g>
									<g>
										<path style="fill:#FFFFFF;" d="M456.627,395.536c-0.155-0.13-0.343-0.23-0.545-0.249c-0.533-0.05-0.891,0.561-0.507,0.954
											c0.305,0.313,1.059,0.681,1.335,0.136c0.073-0.143,0.066-0.317,0.007-0.466
											C456.858,395.764,456.75,395.639,456.627,395.536z M456.604,395.823c0.068,0.151,0.018,0.347-0.114,0.447
											c-0.133,0.1-0.334,0.094-0.461-0.014l0.043-0.018c-0.119-0.068-0.183-0.217-0.155-0.351
											c0.028-0.134,0.142-0.244,0.276-0.272C456.356,395.581,456.536,395.672,456.604,395.823z"/>
									</g>
								</g>
							</g>
							<g>
								<g>
									<g>
										<path style="fill:#FFFFFF;" d="M455.859,395.429c0.686-0.518,1.42-0.973,2.189-1.357c0.843-0.422,1.968-0.909,2.871-0.386
											c0.056,0.032,0.113,0.073,0.13,0.136c0.037,0.138-0.139,0.229-0.277,0.266c-0.771,0.205-1.514,0.514-2.203,0.915
											c-0.645,0.375-1.345,0.617-1.964,1.059c0.136-0.091,0.182-0.179,0.11-0.326c-0.071-0.147-0.223-0.242-0.381-0.284
											C456.175,395.41,456.022,395.424,455.859,395.429z"/>
									</g>
								</g>
							</g>
							<g>
								<g>
									<g>
										<path style="fill:#FFFFFF;" d="M454.649,393.805c-0.155-0.13-0.343-0.23-0.545-0.249c-0.533-0.05-0.891,0.561-0.507,0.954
											c0.305,0.313,1.059,0.681,1.335,0.136c0.072-0.143,0.066-0.317,0.007-0.466
											C454.88,394.033,454.772,393.908,454.649,393.805z M454.626,394.092c0.069,0.151,0.018,0.347-0.114,0.446
											c-0.133,0.1-0.334,0.094-0.461-0.014l0.043-0.018c-0.119-0.068-0.183-0.217-0.155-0.351
											c0.028-0.134,0.142-0.244,0.276-0.272C454.378,393.849,454.557,393.941,454.626,394.092z"/>
									</g>
								</g>
							</g>
							<g>
								<g>
									<g>
										<path style="fill:#FFFFFF;" d="M453.881,393.697c0.686-0.518,1.42-0.973,2.189-1.357c0.585-0.293,1.164-0.637,1.811-0.774
											c0.569-0.121,1.062-0.23,1.585,0.108c0.103,0.067,0.211,0.176,0.179,0.295c-0.032,0.121-0.181,0.16-0.305,0.18
											c-0.877,0.145-1.731,0.43-2.52,0.839c-0.395,0.205-0.772,0.441-1.131,0.704c-0.328,0.241-0.718,0.407-1.062,0.637
											c0.136-0.091,0.182-0.179,0.11-0.326c-0.072-0.147-0.223-0.242-0.381-0.283
											C454.197,393.678,454.044,393.692,453.881,393.697z"/>
									</g>
								</g>
							</g>
							<g>
								<g>
									<g>
										<path style="fill:#FFFFFF;" d="M464.391,404.436c-4.618-3.01-8.824-6.704-12.892-10.276l0.111-0.126
											c4.063,3.568,8.265,7.258,12.872,10.262L464.391,404.436z"/>
									</g>
								</g>
							</g>
						</g>
						<g>
							<g>
								<g>
									<path style="fill:#381905;" d="M443.394,396.817c0.429,0.844,1.207,1.467,2.055,1.888c0.848,0.421,1.771,0.661,2.683,0.914
										c3.859,1.07,7.715,2.458,10.878,4.913c-0.093,0.138-0.161,0.39-0.253,0.528c-3.296-2.32-7.117-3.975-11.036-4.915
										c-0.969-0.232-1.964-0.425-2.84-0.899C444.004,398.772,443.5,397.807,443.394,396.817z"/>
								</g>
							</g>
						</g>
						<g>
							<g>
								<g>
									<path style="fill:#FFFFFF;" d="M451.881,398.116c-0.287,0.132-0.661,0.026-0.828-0.246c-0.178-0.291-0.08-0.703,0.21-0.881
										l0.088,0.142c-0.21,0.13-0.284,0.44-0.155,0.651c0.128,0.21,0.437,0.286,0.652,0.162c0.211-0.124,0.296-0.434,0.179-0.65
										c-0.117-0.214-0.431-0.315-0.644-0.204l-0.074-0.151c0.297-0.14,0.705-0.019,0.865,0.274
										c0.162,0.295,0.049,0.704-0.241,0.874C451.916,398.099,451.898,398.108,451.881,398.116z"/>
								</g>
							</g>
						</g>
						<g>
							<g>
								<g>
									<path style="fill:#FFFFFF;" d="M455.898,400.03c-0.038,0.017-0.078,0.031-0.119,0.039
										c-0.314,0.067-0.657-0.148-0.734-0.461c-0.076-0.313,0.13-0.663,0.44-0.747l0.022-0.006l0.052,0.015l-0.003-0.024
										c0.318-0.049,0.648,0.187,0.705,0.503C456.312,399.625,456.148,399.915,455.898,400.03z M455.469,399.045
										c-0.189,0.087-0.311,0.32-0.261,0.524c0.055,0.224,0.31,0.385,0.536,0.337c0.225-0.049,0.394-0.299,0.352-0.526
										c-0.041-0.227-0.286-0.402-0.515-0.368l-0.01,0.036l-0.064-0.018C455.495,399.034,455.482,399.039,455.469,399.045z"/>
								</g>
							</g>
						</g>
					</g>
					<g>
						<g>
							<g>
								<g>
									<g>
										<path style="fill:#381905;" d="M418.235,396.188c0.057-1.503-0.061-3.025-0.498-4.464
											c-0.114-0.376-0.337-0.812-0.729-0.821c-0.359-0.008-0.603,0.353-0.76,0.677c-0.259,0.535-0.48,1.094-0.832,1.573
											c-0.351,0.479-0.864,0.88-1.456,0.932c-0.76,0.067-1.44-0.436-2.036-0.912c-0.665-0.531-1.33-1.061-1.996-1.592
											c-0.474-0.378-0.973-0.768-1.567-0.891c-0.636-0.131-1.333,0.086-1.783,0.555c-1.478,1.54-3.554,2.21-5.346,3.369
											c-1.378,0.891-2.758,1.784-4.052,2.794c-0.752,0.587-1.48,1.22-2.04,1.992c-0.559,0.772-0.943,1.7-0.933,2.653
											c0.005,0.505,0.674,0.517,1.163,0.647c2.37,0.627,4.863,0.555,7.31,0.398c1.969-0.126,3.947-0.307,5.853-0.819
											c1.905-0.513,3.749-1.376,5.188-2.726C415.056,398.299,416.618,397.048,418.235,396.188z"/>
									</g>
								</g>
							</g>
							<g>
								<g>
									<g>
										<path style="fill:#381905;" d="M410.892,392.797c0.56-0.294,0.784-1.019,0.666-1.639
											c-0.118-0.621-0.508-1.154-0.924-1.629c-0.936-1.07-2.052-1.965-3.161-2.854c-0.285-0.229-0.578-0.461-0.922-0.583
											c-0.345-0.121-0.758-0.113-1.044,0.115c-0.499,0.397-0.376,1.18-0.621,1.768c-0.164,0.393-0.492,0.691-0.81,0.974
											c-3.347,2.986-6.695,5.879-10.569,8.177c-0.532,0.315-1.092,0.643-1.41,1.173c0.421,0.399,0.634,0.999,0.845,1.539
											c0.211,0.54,0.519,1.104,1.059,1.316c0.413,0.163,0.884,0.084,1.298-0.075c0.81-0.311,1.475-0.9,2.157-1.435
											c1.761-1.383,3.749-2.476,5.86-3.221"/>
									</g>
								</g>
							</g>
							<g>
								<g>
									<g>
										<path style="fill:#FFFFFF;" d="M418.231,394.962c-0.042-0.001-0.092,0.013-0.15,0.045
											c-0.121,0.067-0.202,0.187-0.285,0.298c-0.795,1.072-2.093,1.661-3.394,1.96c-1.3,0.299-2.645,0.351-3.958,0.59
											c-2.961,0.54-5.667,2.011-8.567,2.818c-1.263,0.351-2.561,0.575-3.868,0.668c-1.249,0.089-2.542-0.161-3.764-0.054
											c-0.141-0.678-0.283-1.29-0.69-1.87c-0.229-0.327-0.966-1.264-1.414-1.26c-0.707,0.007-1.412,0.102-2.096,0.276
											c-0.551,0.141-1.372,0.301-1.722,0.758c-0.762,0.995-1.06,2.474-0.995,3.699c0.02,0.37,0.085,0.766,0.342,1.032
											c0.212,0.219,0.517,0.315,0.81,0.402c1.668,0.497,3.334,1.119,5.068,1.237c1.899,0.13,3.847,0.15,5.683-0.424
											c1.655-0.517,3.13-1.489,4.74-2.132c3.293-1.314,6.963-1.19,10.439-1.889c0.982-0.197,1.97-0.47,2.804-1.024
											c0.9-0.597,1.431-1.482,1.472-2.565c0.02-0.51-0.057-1.022-0.159-1.52C418.476,395.753,418.539,394.969,418.231,394.962z"
											/>
									</g>
								</g>
							</g>
							<g>
								<g>
									<g>
										<path style="fill:#FFFFFF;" d="M396.07,399.607c-0.116,0.11-0.195,0.266-0.189,0.426c0.022,0.611,0.861,0.593,1.269,0.437
											c0.513-0.197,0.444-0.901-0.06-1.079c-0.191-0.068-0.403-0.056-0.599-0.003
											C396.337,399.429,396.186,399.497,396.07,399.607z M396.853,399.64c0.11,0.082,0.167,0.23,0.137,0.363
											c-0.031,0.133-0.152,0.242-0.288,0.254l0.031,0.034c-0.16,0.045-0.346-0.034-0.424-0.181
											c-0.078-0.146-0.042-0.344,0.084-0.453C396.518,399.549,396.72,399.541,396.853,399.64z"/>
									</g>
								</g>
							</g>
							<g>
								<g>
									<g>
										<path style="fill:#FFFFFF;" d="M397.234,399.612c-0.406-0.758-0.881-1.478-1.417-2.15
											c-0.223-0.279-0.462-0.555-0.771-0.735c-0.308-0.18-0.7-0.252-1.026-0.106c-0.079,0.036-0.16,0.093-0.175,0.179
											c-0.019,0.108,0.073,0.2,0.156,0.272c0.913,0.797,1.691,1.748,2.291,2.801c-0.085-0.14-0.09-0.239,0.036-0.342
											c0.127-0.103,0.304-0.126,0.465-0.097C396.955,399.462,397.088,399.539,397.234,399.612z"/>
									</g>
								</g>
							</g>
							<g>
								<g>
									<g>
										<path style="fill:#FFFFFF;" d="M398.178,398.247c-0.116,0.11-0.195,0.266-0.189,0.426
											c0.022,0.611,0.861,0.593,1.269,0.436c0.514-0.196,0.445-0.901-0.06-1.079c-0.191-0.068-0.403-0.056-0.599-0.003
											C398.445,398.069,398.294,398.137,398.178,398.247z M398.961,398.28c0.11,0.082,0.167,0.23,0.137,0.363
											c-0.031,0.133-0.152,0.242-0.288,0.254l0.031,0.034c-0.16,0.045-0.345-0.034-0.424-0.18
											c-0.079-0.146-0.042-0.345,0.084-0.453C398.626,398.188,398.827,398.181,398.961,398.28z"/>
									</g>
								</g>
							</g>
							<g>
								<g>
									<g>
										<path style="fill:#FFFFFF;" d="M399.342,398.252c-0.618-1.155-1.341-2.278-2.585-2.821
											c-0.153-0.067-0.312-0.125-0.479-0.136c-0.166-0.011-0.342,0.03-0.467,0.14c0.057-0.05,1.253,1.22,1.332,1.31
											c0.476,0.545,0.898,1.138,1.257,1.767c-0.085-0.139-0.09-0.239,0.037-0.342c0.126-0.104,0.304-0.126,0.465-0.097
											C399.063,398.102,399.196,398.179,399.342,398.252z"/>
									</g>
								</g>
							</g>
							<g>
								<g>
									<g>
										<path style="fill:#FFFFFF;" d="M400.157,397.013c-0.081,0.138-0.112,0.31-0.062,0.462c0.193,0.58,0.993,0.327,1.341,0.062
											c0.438-0.333,0.173-0.989-0.361-1.019c-0.202-0.011-0.402,0.06-0.576,0.165
											C400.363,396.767,400.238,396.875,400.157,397.013z M400.918,396.825c0.128,0.047,0.225,0.173,0.233,0.31
											c0.008,0.137-0.078,0.275-0.205,0.324l0.039,0.024c-0.141,0.088-0.341,0.064-0.458-0.054
											c-0.116-0.118-0.137-0.319-0.047-0.458C400.571,396.831,400.762,396.767,400.918,396.825z"/>
									</g>
								</g>
							</g>
							<g>
								<g>
									<g>
										<path style="fill:#FFFFFF;" d="M401.276,396.69c-0.166-0.03-0.505-0.491-0.641-0.612
											c-0.212-0.191-0.429-0.402-0.668-0.559c-0.417-0.274-0.688-0.712-1.113-0.993c-0.381-0.252-0.849-0.4-1.298-0.32
											c-0.142,0.025-0.304,0.101-0.317,0.244c-0.014,0.151,0.144,0.253,0.278,0.324c0.574,0.302,1.105,0.686,1.574,1.135
											c0.221,0.212,0.404,0.468,0.627,0.675c0.232,0.215,0.493,0.409,0.728,0.623c-0.121-0.11-0.154-0.204-0.061-0.338
											c0.092-0.135,0.257-0.206,0.419-0.224C400.966,396.625,401.115,396.661,401.276,396.69z"/>
									</g>
								</g>
							</g>
							<g>
								<g>
									<g>
										<path style="fill:#FFFFFF;" d="M402.338,395.532c-0.081,0.138-0.113,0.31-0.062,0.462c0.193,0.58,0.993,0.327,1.341,0.062
											c0.437-0.333,0.173-0.989-0.361-1.019c-0.202-0.011-0.402,0.06-0.576,0.165
											C402.544,395.286,402.418,395.393,402.338,395.532z M403.098,395.343c0.128,0.047,0.225,0.173,0.233,0.31
											c0.008,0.137-0.078,0.275-0.205,0.324l0.039,0.024c-0.141,0.088-0.341,0.064-0.458-0.054
											c-0.116-0.118-0.137-0.319-0.047-0.459C402.751,395.35,402.942,395.286,403.098,395.343z"/>
									</g>
								</g>
							</g>
							<g>
								<g>
									<g>
										<path style="fill:#FFFFFF;" d="M403.456,395.209c-0.434-0.078-1.414-1.248-1.808-1.552
											c-0.697-0.539-1.61-1.301-2.495-0.707c-0.081,0.054-0.164,0.142-0.135,0.235c0.024,0.077,0.111,0.11,0.188,0.135
											c0.718,0.239,1.198,0.667,1.778,1.118c0.551,0.427,1.117,0.811,1.641,1.287c-0.121-0.11-0.154-0.204-0.061-0.339
											c0.092-0.135,0.257-0.206,0.419-0.224C403.146,395.143,403.296,395.18,403.456,395.209z"/>
									</g>
								</g>
							</g>
							<g>
								<g>
									<g>
										<path style="fill:#FFFFFF;" d="M404.773,394.111c-0.081,0.138-0.112,0.31-0.062,0.462c0.193,0.58,0.993,0.327,1.341,0.062
											c0.437-0.333,0.173-0.989-0.361-1.019c-0.202-0.011-0.402,0.06-0.576,0.165
											C404.979,393.865,404.854,393.973,404.773,394.111z M405.534,393.923c0.128,0.047,0.225,0.173,0.233,0.31
											c0.008,0.137-0.078,0.275-0.205,0.324l0.039,0.024c-0.141,0.088-0.341,0.064-0.458-0.054
											c-0.116-0.118-0.137-0.319-0.047-0.458S405.378,393.865,405.534,393.923z"/>
									</g>
								</g>
							</g>
							<g>
								<g>
									<g>
										<path style="fill:#FFFFFF;" d="M405.892,393.788c-0.603-0.613-1.261-1.171-1.965-1.665
											c-0.771-0.541-1.812-1.189-2.783-0.805c-0.06,0.024-0.123,0.056-0.149,0.115c-0.057,0.131,0.104,0.247,0.235,0.303
											c0.732,0.316,1.422,0.732,2.044,1.23c0.583,0.466,1.239,0.809,1.786,1.337c-0.121-0.11-0.153-0.204-0.061-0.339
											c0.092-0.135,0.257-0.206,0.419-0.224C405.582,393.723,405.731,393.759,405.892,393.788z"/>
									</g>
								</g>
							</g>
							<g>
								<g>
									<g>
										<path style="fill:#FFFFFF;" d="M406.985,392.69c-0.081,0.138-0.112,0.31-0.062,0.462c0.193,0.58,0.993,0.327,1.341,0.062
											c0.438-0.333,0.173-0.989-0.361-1.019c-0.202-0.011-0.402,0.06-0.575,0.165
											C407.191,392.444,407.066,392.552,406.985,392.69z M407.746,392.502c0.128,0.047,0.225,0.173,0.233,0.31
											c0.008,0.137-0.077,0.275-0.205,0.324l0.039,0.024c-0.141,0.088-0.341,0.064-0.458-0.054
											c-0.116-0.118-0.137-0.319-0.047-0.458C407.398,392.508,407.59,392.444,407.746,392.502z"/>
									</g>
								</g>
							</g>
							<g>
								<g>
									<g>
										<path style="fill:#FFFFFF;" d="M408.104,392.367c-0.603-0.613-1.261-1.171-1.965-1.665
											c-0.536-0.376-1.057-0.801-1.678-1.033c-0.545-0.203-1.017-0.384-1.583-0.127c-0.112,0.051-0.234,0.142-0.22,0.265
											c0.014,0.125,0.156,0.185,0.275,0.223c0.846,0.272,1.648,0.681,2.369,1.202c0.361,0.261,0.698,0.55,1.015,0.863
											c0.289,0.286,0.65,0.508,0.957,0.786c-0.121-0.11-0.154-0.203-0.061-0.338c0.092-0.135,0.257-0.206,0.419-0.224
											C407.793,392.302,407.943,392.338,408.104,392.367z"/>
									</g>
								</g>
							</g>
							<g>
								<g>
									<g>
										<path style="fill:#FFFFFF;" d="M396.125,401.44c5.011-2.297,9.716-5.331,14.265-8.264l-0.091-0.141
											c-4.544,2.93-9.244,5.961-14.244,8.253L396.125,401.44z"/>
									</g>
								</g>
							</g>
						</g>
						<g>
							<g>
								<g>
									<path style="fill:#381905;" d="M418.017,396.998c-0.549,0.771-1.41,1.273-2.311,1.564c-0.9,0.291-1.849,0.393-2.788,0.509
										c-3.974,0.49-7.992,1.294-11.483,3.256c0.071,0.15,0.102,0.409,0.173,0.559c3.602-1.809,7.625-2.882,11.64-3.235
										c0.992-0.087,2.005-0.131,2.941-0.471C417.125,398.841,417.766,397.962,418.017,396.998z"/>
								</g>
							</g>
						</g>
						<g>
							<g>
								<g>
									<path style="fill:#FFFFFF;" d="M409.43,397.033c0.264,0.173,0.65,0.123,0.855-0.121c0.219-0.262,0.182-0.683-0.077-0.902
										l-0.108,0.128c0.189,0.159,0.216,0.477,0.057,0.667c-0.158,0.189-0.475,0.218-0.668,0.065
										c-0.191-0.154-0.229-0.473-0.081-0.669c0.147-0.195,0.473-0.248,0.667-0.107l0.095-0.138
										c-0.273-0.182-0.694-0.123-0.896,0.144c-0.203,0.268-0.152,0.689,0.109,0.9C409.399,397.01,409.414,397.022,409.43,397.033
										z"/>
								</g>
							</g>
						</g>
						<g>
							<g>
								<g>
									<path style="fill:#FFFFFF;" d="M404.916,397.607c0.104-0.305,0.464-0.488,0.772-0.394l-0.007,0.023l0.054-0.007
										l0.021,0.009c0.294,0.129,0.446,0.506,0.325,0.803c-0.122,0.298-0.492,0.46-0.794,0.348
										c-0.04-0.015-0.077-0.034-0.112-0.057C404.945,398.182,404.826,397.872,404.916,397.607z M405.708,397.401l-0.066,0.008
										l-0.005-0.037c-0.221-0.068-0.489,0.069-0.563,0.288c-0.074,0.219,0.056,0.491,0.271,0.572
										c0.216,0.081,0.493-0.04,0.58-0.254c0.079-0.194-0.007-0.442-0.181-0.556C405.733,397.415,405.721,397.408,405.708,397.401
										z"/>
								</g>
							</g>
						</g>
					</g>
				</g>
				<g>
					<g>
						<g>
							<path style="fill:#FFFFFF;" d="M399.934,207.171c-2.614,8.211-10.963,34.175-11.924,44.639
								c-0.961,10.464,25.585,16.471,26.651,16.278c1.067-0.194-1.533-60.917-1.533-60.917"/>
						</g>
					</g>
				</g>
				<g>
					<g>
						<g>
							<path style="fill:#FFFFFF;" d="M410.387,223.068c-0.006,0-0.012,0-0.019-0.001c-5.726-0.802-11.128-2.947-15.211-6.038
								c-0.049-0.038-0.068-0.103-0.044-0.161c0.386-0.959,0.817-2.076,1.234-3.157c0.417-1.082,0.848-2.2,1.236-3.161
								c0.015-0.038,0.045-0.066,0.084-0.079c0.039-0.012,0.081-0.008,0.115,0.014c4.236,2.606,8.797,4.647,13.558,6.068
								c0.065,0.02,0.107,0.085,0.096,0.152c-0.152,1.016-0.305,2.07-0.457,3.123c-0.152,1.054-0.304,2.107-0.457,3.124
								C410.512,223.018,410.454,223.068,410.387,223.068z"/>
						</g>
					</g>
				</g>
				<g>
					<g>
						<g>
							<path style="fill:#FFFFFF;" d="M451.127,207.171c2.614,8.211,13.539,32.432,14.499,42.896
								c0.96,10.465-33.453,18.215-34.52,18.021c-1.066-0.194,1.533-60.917,1.533-60.917"/>
						</g>
					</g>
				</g>
				<g>
					<g>
						<g>
							<path style="fill:#FFFFFF;" d="M440.391,223.068c-0.067,0-0.125-0.049-0.136-0.117c-0.153-1.016-0.305-2.07-0.457-3.124
								c-0.152-1.053-0.305-2.107-0.457-3.123c-0.01-0.068,0.031-0.132,0.096-0.152c4.761-1.421,9.323-3.464,13.558-6.068
								c0.033-0.021,0.076-0.026,0.115-0.014c0.039,0.013,0.07,0.042,0.085,0.079c0.387,0.961,0.818,2.079,1.235,3.161
								c0.417,1.081,0.848,2.198,1.234,3.157c0.022,0.058,0.004,0.123-0.045,0.161c-4.081,3.091-9.483,5.236-15.211,6.038
								C440.404,223.068,440.397,223.068,440.391,223.068z"/>
						</g>
					</g>
				</g>
			</g>
			<g>
				<g>
					<g>
						<polygon style="fill:#FFFFFF;" points="406.622,160.344 439.891,149.821 446.967,200.604 420.984,205.958 						"/>
					</g>
				</g>
			</g>
			<g>
				<g>
					<g>
						<polygon style="fill:#381905;" points="426.201,149.821 394.608,158.4 411.509,212.27 441.012,208.153 						"/>
					</g>
				</g>
			</g>
			<g>
				<g>
					<g>
						<path style="fill:#A2493B;" d="M430.93,190.289c0.528-0.24,1.069-0.518,1.401-0.992c0.685-0.976,0.03-1.995-1.074-1.937
							c-0.533,0.028-1.041,0.22-1.544,0.399c-2.675,0.956-5.584,1.484-8.433,1.406c-0.351-0.01-1.195,0.09-1.286-0.383
							c-0.036-0.188,0.066-0.372,0.226-0.468c0.245,0.344,1.526,0.234,1.937,0.245c0.751,0.019,1.503-0.01,2.248-0.104
							c1.584-0.199,3.146-0.698,4.474-1.582c0.688-0.458,1.814-1.417,1.203-2.322c-0.297-0.439-0.897-0.576-1.421-0.501
							c-0.524,0.075-1.007,0.319-1.505,0.497c-2.69,0.962-5.654-0.027-8.289-1.131c-0.764-0.32-1.569-0.688-2.017-1.385
							c-1.044-1.627,1.295-2.76,2.158-3.808c0.496-0.601,0.58-1.543,0.302-2.188c-0.174-0.403-0.55-0.715-0.998-0.724
							c-0.749-0.015-1.343,0.727-1.953,1.248c-0.884,0.756-1.992,1.118-3.046,1.541c-2.968,1.19-5.592,3.523-7.785,5.803
							c-2.261,2.35-4.407,4.163-7.245,5.836c-2.094,1.234-4.773,2.659-6.102,4.789c-1.35,2.165-1.43,5.369-0.565,7.728
							c0.826,2.252,2.572,4.152,4.746,5.165c1.531,0.714,3.461,0.951,4.83-0.04c1.542-1.115,1.785-3.259,2.159-5.125
							c0.588-2.923,1.829-5.711,3.599-8.111c1.957-2.653,4.639,0.2,6.873,1.186c3.234,1.428,6.856,2.003,10.368,1.544
							c0.536-0.07,1.24-0.444,1.023-0.94c-0.112-0.257-0.425-0.348-0.699-0.409c-1.164-0.259-2.333-0.208-3.524-0.224
							c-0.186-0.003-0.417-0.037-0.473-0.214c-0.209-0.659,1.575-0.316,1.841-0.305c0.907,0.037,1.817,0.004,2.719-0.101
							c1.745-0.201,3.461-0.665,5.067-1.378c0.328-0.146,0.664-0.312,0.885-0.595c0.221-0.283,0.29-0.718,0.063-0.996
							c-0.285-0.35-0.83-0.281-1.27-0.178c-2.905,0.676-5.812,1.318-8.822,1.118c-0.211-0.014-0.462-0.059-0.543-0.254
							c-0.091-0.219,0.131-0.466,0.367-0.493c0.268-0.031,0.539,0.102,0.814,0.096c0.406-0.01,0.817-0.067,1.225-0.081
							c0.857-0.029,1.719-0.018,2.571-0.132C427.329,191.534,429.186,191.081,430.93,190.289z"/>
					</g>
				</g>
			</g>
			<g>
				<g>
					<g>
						<path style="fill:#A2493B;" d="M426.873,174.782c-0.58-0.07-1.185-0.172-1.65-0.526c-0.956-0.73-0.638-1.909,0.442-2.189
							c0.521-0.135,1.068-0.107,1.605-0.088c2.863,0.102,5.82-0.277,8.534-1.222c0.335-0.117,1.176-0.278,1.12-0.761
							c-0.023-0.192-0.177-0.338-0.36-0.38c-0.131,0.405-1.395,0.691-1.787,0.826c-0.716,0.247-1.447,0.449-2.192,0.586
							c-1.583,0.292-3.236,0.289-4.783-0.156c-0.801-0.23-2.176-0.809-1.865-1.865c0.151-0.513,0.686-0.827,1.213-0.916
							c0.527-0.088,1.065,0,1.599,0.019c2.879,0.103,5.427-1.751,7.622-3.616c0.637-0.541,1.298-1.14,1.515-1.947
							c0.506-1.882-2.087-2.257-3.237-3.001c-0.66-0.427-1.029-1.306-0.958-2.011c0.044-0.44,0.31-0.854,0.738-1
							c0.715-0.243,1.513,0.289,2.257,0.604c1.08,0.456,2.256,0.467,3.398,0.551c3.17,0.235,6.193,1.631,9.069,2.858
							c5.57,2.377,11.879,2.351,17.676,4.059c1.743,0.513,3.508,1.127,4.899,2.297c4.097,3.447,1.993,9.002-2.63,10.573
							c-2.743,0.932-5.806,0.47-8.472-0.665c-1.902-0.81-3.637-1.944-5.311-3.145c-1.332-0.956-2.375-2.433-3.959-2.975
							c-3.122-1.066-4.507,1.953-6.505,3.716c-2.673,2.359-5.978,4.017-9.494,4.648c-0.537,0.096-1.327-0.048-1.271-0.591
							c0.029-0.282,0.302-0.464,0.547-0.607c1.04-0.604,2.178-0.912,3.318-1.291c0.177-0.059,0.389-0.163,0.389-0.35
							c0-0.697-1.61,0.177-1.862,0.269c-0.86,0.313-1.745,0.558-2.644,0.733c-1.739,0.339-3.529,0.417-5.29,0.221
							c-0.36-0.04-0.734-0.097-1.033-0.302c-0.299-0.205-0.498-0.601-0.364-0.938c0.167-0.424,0.712-0.523,1.166-0.559
							c2.999-0.237,5.988-0.507,8.82-1.617c0.198-0.078,0.426-0.198,0.444-0.41c0.021-0.239-0.268-0.408-0.503-0.362
							c-0.267,0.052-0.487,0.263-0.753,0.34c-0.394,0.114-0.806,0.185-1.202,0.296c-0.832,0.234-1.658,0.508-2.511,0.658
							C430.714,174.88,428.791,175.012,426.873,174.782z"/>
					</g>
				</g>
			</g>
			<g>
				<g>
					<path style="fill:#381905;" d="M452.837,162.057c-0.111,0-0.209-0.081-0.227-0.195c-0.184-1.219-0.702-2.363-1.496-3.307
						c-0.047-0.056-0.065-0.132-0.047-0.203l0.44-1.76l-1.416,0.335c-0.064,0.017-0.147-0.002-0.204-0.052
						c-0.055-0.049-0.084-0.123-0.075-0.197c0.904-7.827-1.607-16.08-6.718-22.077c-0.082-0.097-0.072-0.241,0.025-0.323
						c0.097-0.081,0.242-0.068,0.322,0.026c5.121,6.009,7.673,14.247,6.861,22.102l1.464-0.346c0.081-0.017,0.161,0.005,0.217,0.062
						c0.056,0.057,0.079,0.139,0.059,0.217l-0.503,2.013c0.807,0.991,1.333,2.179,1.525,3.443c0.018,0.124-0.068,0.242-0.193,0.26
						C452.86,162.057,452.848,162.057,452.837,162.057z"/>
				</g>
			</g>
			<g>
				<g>
					<path style="fill:#381905;" d="M401.619,153.316c-0.122,0-0.224-0.096-0.229-0.218c-0.243-5.15,0.734-10.362,2.825-15.073
						c0.05-0.115,0.183-0.17,0.303-0.116c0.116,0.051,0.168,0.187,0.116,0.303c-2.062,4.646-3.025,9.787-2.785,14.866
						c0.005,0.126-0.091,0.234-0.218,0.24C401.626,153.316,401.623,153.316,401.619,153.316z"/>
				</g>
			</g>
			<g>
				<g>
					<path style="fill:#381905;" d="M404.941,102.84c0.255-0.064,0.523-0.105,0.779-0.046c0.256,0.059,0.498,0.236,0.57,0.488
						c0.069,0.238-0.024,0.5-0.18,0.693c-0.156,0.193-0.369,0.33-0.578,0.464c-1.014,0.649-2.029,1.298-3.043,1.947
						c-0.229,0.146-0.551,0.285-0.744,0.094c-0.461-0.457,0.398-1.784,0.752-2.161C403.143,103.631,404.027,103.068,404.941,102.84z
						"/>
				</g>
			</g>
			<g>
				<g>
					<path style="fill:#381905;" d="M415.261,103.223c-0.255-0.064-0.523-0.105-0.779-0.046c-0.256,0.059-0.497,0.236-0.57,0.488
						c-0.069,0.238,0.024,0.5,0.18,0.693c0.156,0.193,0.369,0.33,0.578,0.464c1.014,0.649,2.029,1.298,3.043,1.947
						c0.229,0.146,0.551,0.285,0.744,0.094c0.461-0.457-0.398-1.784-0.752-2.161C417.059,104.013,416.175,103.451,415.261,103.223z"
						/>
				</g>
			</g>
		</g>
		<path style="fill:#381905;" d="M421.812,79.786c4.471-0.391,8.908,1.983,11.687,5.507c2.78,3.523,4.052,8.052,4.326,12.531
			c0.59,9.647-3.405,19.476-10.558,25.976c0.466-7.382-1.717-14.903-6.063-20.888c-3.012-4.148-7.8-8.611-8.484-13.998
			C412.111,84.124,417.507,80.162,421.812,79.786z"/>
		<path style="fill:#A2493B;" d="M422.733,109.896c1.113-1.486,2.382-2.855,3.78-4.077c0.573-0.501,1.311-1.008,2.035-0.774
			c0.707,0.228,1.021,1.055,1.104,1.793c0.358,3.169-2.164,6.384-5.326,6.791"/>
		<path style="fill:none;stroke:#381905;stroke-width:0.5;stroke-linecap:round;stroke-linejoin:round;stroke-miterlimit:10;" d="
			M409.832,113.259c-0.707-0.248-1.309-0.785-1.637-1.459c-0.116-0.238-0.197-0.527-0.073-0.763c0.358-0.677,2.027-0.334,2.637-0.46
			c0.052-0.011-0.329-3.455-0.38-3.76"/>
		<path style="fill:none;stroke:#381905;stroke-width:0.5;stroke-linecap:round;stroke-linejoin:round;stroke-miterlimit:10;" d="
			M427.484,107.003c-0.949,0.871-1.612,2.048-1.865,3.311c0.043-0.415,0.681-0.6,0.939-0.272c0.258,0.327-0.07,0.905-0.484,0.85"/>
		<path style="fill:none;stroke:#381905;stroke-width:0.5;stroke-linecap:round;stroke-linejoin:round;stroke-miterlimit:10;" d="
			M439.471,218.649c-0.018,0.915-0.032,1.852,0.265,2.717c0.297,0.865,0.974,1.659,1.873,1.831c0.594,0.114,1.203-0.051,1.783-0.222
			c3.246-0.956,6.421-2.15,9.492-3.569"/>
		<path style="fill:none;stroke:#381905;stroke-width:0.5;stroke-linecap:round;stroke-linejoin:round;stroke-miterlimit:10;" d="
			M409.163,215.586c0.145,0.872,0.29,1.765,0.137,2.636c-0.152,0.871-0.661,1.732-1.481,2.063c-0.587,0.237-1.248,0.178-1.877,0.107
			c-2.346-0.265-4.68-0.64-6.991-1.125"/>
	</g>
	<g>
		<g>
			<g>
				<g>
					<g>
						<path style="fill:#595668;" d="M220.868,403.928c2.932-1.754,119.405-6.262,134.676-3.702
							c0.706,0.118,0.563,5.315,0.681,5.889c0.576,2.82-10.821,16.665-13.488,17.009c-2.667,0.344-134.57-1.292-136.615-2.189
							c-1.015-0.445-1.464-3.346-0.793-6.923C205.329,414.012,219.101,404.986,220.868,403.928z"/>
					</g>
				</g>
				<g>
					<path style="fill:#747284;" d="M220.187,398.04c3.681-2.202,134.781-0.634,135.357,2.186
						c0.576,2.82-10.821,16.665-13.488,17.009c-2.667,0.344-134.57-1.292-136.615-2.189
						C203.396,414.149,216.677,400.139,220.187,398.04z"/>
				</g>
			</g>
			<g>
				<path style="fill:#381905;" d="M272.54,313.117c0,0-23.206,51.593-25.201,53.99c-1.996,2.397,27.061,30.374,27.061,30.374
					s-17.739,8.52-15.481,10.854s47.394,0.306,48.463-0.047c1.069-0.353-48.532-35.465-47.031-41.426
					c1.501-5.961,39.441-46.18,39.441-46.18"/>
			</g>
		</g>
		<g>
			<path style="fill:#381905;" d="M192.705,269.522c0,0-5.395,28.879-2.576,34.22c2.819,5.341,93.431,34.813,96.726,35.275
				c12.795,1.793,65.045,3.947,72.767,1.379c4.02-1.337,22.796-19.477,22.896-22.978c0.1-3.502-8.588-18.162-8.588-18.162
				l-65.532,1.236l-107.492-40.866L192.705,269.522z"/>
		</g>
		<g>
			<path style="fill:#595668;" d="M353.594,293.506c-0.997,0-1.813-0.798-1.833-1.799l-1.318-69.834
				c-0.018-1.011,0.786-1.847,1.799-1.867c0.988-0.011,1.847,0.788,1.867,1.799l1.317,69.834c0.018,1.011-0.786,1.847-1.799,1.867
				C353.617,293.506,353.605,293.506,353.594,293.506z"/>
		</g>
		<g>
			<path style="fill:#595668;" d="M441.002,299.821c-0.75,0-1.455-0.464-1.724-1.21c-0.204-0.566-20.937-56.686-65.899-71.733
				c-24.968-8.358-52.861-2.656-82.894,16.947c-0.847,0.551-1.983,0.315-2.536-0.533c-0.553-0.848-0.315-1.983,0.533-2.538
				c31.026-20.246,59.988-26.083,86.078-17.347c46.65,15.625,67.956,73.378,68.165,73.96c0.344,0.95-0.15,2.001-1.101,2.345
				C441.419,299.785,441.208,299.821,441.002,299.821z"/>
		</g>
		<g>
			<path style="fill:#595668;" d="M427.076,296.654c0.912-1.773,21.348-16.64,29.708-20.081c0.387-0.159,1.919,2.461,2.154,2.709
				c1.155,1.22-0.224,11.599-1.439,12.592c-1.216,0.993-31.196,17.573-32.487,17.759c-0.641,0.092-1.758-1.207-2.529-3.188
				C422.483,306.446,426.526,297.724,427.076,296.654z"/>
		</g>
		<g>
			<path style="fill:#FFFFFF;" d="M424.922,293.945c1.146-2.227,30.707-18.593,31.862-17.372c1.155,1.22-0.224,11.599-1.44,12.592
				c-1.216,0.993-31.196,17.573-32.487,17.759C421.567,307.111,423.829,296.069,424.922,293.945z"/>
		</g>
		<g>
			<g>
				<path style="fill:#595668;" d="M415.582,326.395c0.912-1.774,21.348-16.64,29.708-20.081c0.387-0.159,1.919,2.461,2.154,2.709
					c1.155,1.22-0.224,11.599-1.44,12.592c-1.216,0.993-31.196,17.573-32.487,17.759c-0.641,0.092-1.758-1.207-2.528-3.187
					C410.99,336.187,415.032,327.465,415.582,326.395z"/>
			</g>
		</g>
		<g>
			<path style="fill:#FFFFFF;" d="M413.428,323.686c1.145-2.227,30.707-18.593,31.862-17.372c1.155,1.22-0.224,11.599-1.439,12.592
				c-1.216,0.993-31.196,17.573-32.487,17.759C410.074,336.852,412.336,325.81,413.428,323.686z"/>
		</g>
		<g>
			<g>
				<g>
					<path style="fill:#595668;" d="M308.202,296.034c3.527-2.11,55.466-5.87,73.84-2.791c0.85,0.142,0.678,6.394,0.819,7.085
						c0.693,3.393-13.019,20.05-16.228,20.465c-3.209,0.414-73.712-3.218-76.173-4.297c-1.222-0.536-1.761-4.025-0.954-8.329
						C289.506,308.166,306.076,297.306,308.202,296.034z"/>
				</g>
			</g>
			<g>
				<path style="fill:#747284;" d="M307.383,288.949c4.429-2.649,73.966,0.901,74.659,4.295c0.693,3.393-13.019,20.05-16.228,20.464
					s-73.712-3.218-76.173-4.297C287.18,308.331,303.16,291.475,307.383,288.949z"/>
			</g>
		</g>
		<g>
			<g>
				<g>
					<path style="fill:#595668;" d="M167.54,236.152c4.061-0.631,118.599,44.899,134.47,54.654c0.734,0.451-1.773,6.181-1.902,6.874
						c-0.633,3.405-19.596,13.692-22.726,12.871c-3.13-0.821-132.095-60.175-133.97-62.1c-0.931-0.955-0.12-4.392,2.245-8.078
						C145.657,240.373,165.092,236.532,167.54,236.152z"/>
				</g>
			</g>
			<g>
				<path style="fill:#747284;" d="M169.443,229.278c5.099-0.792,133.201,58.123,132.568,61.528
					c-0.633,3.405-19.596,13.692-22.726,12.871c-3.13-0.821-132.096-60.175-133.97-62.1
					C143.439,239.653,164.58,230.033,169.443,229.278z"/>
			</g>
		</g>
		<g>
			<g>
				<path style="fill:#E87578;" d="M264.926,279.121c0,0,21.914,4.546,29.272,13.507c0,0,13.238-18.18,15.305-22.883
					c2.067-4.704,15.29-8.131-26.712-21.763C240.788,234.348,264.926,279.121,264.926,279.121z"/>
			</g>
			<g>
				<g>
					<g>
						<g>
							<g>
								<path style="fill:#E87578;" d="M310.262,263.552c6.649-7.179,15.167-10.442,23.898-14.776
									c9.554-4.742,19.108-9.485,28.662-14.227c4.193-2.081,8.479-4.192,13.115-4.84c4.636-0.648,9.769,0.411,12.938,3.856
									c4.685,5.094,2.413,10.99-2.865,13.876c-6.888,3.765-13.326,8.314-20.162,12.173c-8.4,4.742-14.507,8.012-20.113,16.345
									c-5.138,7.638-10.187,16.317-18.808,19.546c-7.115,2.666-16.644,0.599-21.776-5.166c-5.449-6.122-3.122-15.226,1.06-21.647
									C307.409,266.854,308.777,265.155,310.262,263.552z"/>
							</g>
						</g>
					</g>
				</g>
				<g>
					<g>
						<g>
							<g>
								<path style="fill:#E87578;" d="M369.064,234.275c0.948-1.193,2.649-1.998,4.778-2.745c2.732-0.959,5.583-1.932,8.458-1.592
									c3.377,0.399,6.331,2.599,8.393,5.303c2.861,3.752,4.643,8.24,7.315,12.143c3.177,4.639,6.423,9.212,9.77,13.731
									c6.832,9.225,14.117,18.118,21.827,26.623c1.074,1.185,2.821,3.224,1.809,4.87c-0.862,1.401-3.613,2-5.088,1.809
									c-2.287-0.297-3.698-1.765-5.671-2.704c-1.714-0.816-3.55-1.341-5.276-2.229c-4.198-2.158-8.274-4.564-12.173-7.225
									c-9.513-6.494-17.743-14.859-24.093-24.469c-1.542-2.333-2.972-4.74-4.283-7.21c-2.014-3.796-4.914-7.717-6.231-11.812
									C367.959,236.779,368.197,235.365,369.064,234.275z"/>
							</g>
						</g>
					</g>
				</g>
			</g>
			<g>
				<g>
					<g>
						<g>
							<path style="fill:#E87578;" d="M427.057,285.547c-2.956-2.261-5.307-7.559-9.81-5.337c-1.84,0.908-3.001,2.997-2.882,5.046
								c0.159,2.748,2.293,3.815,3.833,5.697c1.903,2.324,3.566,4.751,4.8,7.503c0.579,1.292,1.128,2.7,2.29,3.509
								c1.778,1.238,4.3,0.549,6.027-0.76c1.727-1.309,2.993-3.141,4.679-4.501c1.64-1.322,3.63-2.157,5.672-2.675
								c2.26-0.574,4.806-0.885,6.351-2.632c0.751-0.849,1.177-1.962,2-2.742c0.662-0.628,1.524-0.988,2.323-1.428
								c0.799-0.44,1.589-1.023,1.91-1.877c0.321-0.854-0.043-2.009-0.924-2.245c-0.855-0.229-1.657,0.443-2.353,0.99
								c-1.337,1.051-2.914,1.801-4.582,2.131c-2.173,0.43-4.428,0.149-6.622,0.455c-2.277,0.318-4.476,1.267-6.775,1.204
								C430.832,287.826,428.774,286.86,427.057,285.547z"/>
						</g>
					</g>
				</g>
			</g>
			<g>
				<g>
					<g>
						<g>
							<g>
								<g>
									<g>
										<g>
											<path style="fill:#E87578;" d="M414.641,324.62c0.246,1.354,0.377,2.819,1.2,3.862c1.042,1.319,2.975,1.589,4.643,1.094
												c1.668-0.494,3.13-1.619,4.508-2.766c1.379-1.147,2.749-2.359,4.352-3.086c2.083-0.946,4.598-1.115,6.138-2.887
												c0.751-0.865,1.16-2.014,1.988-2.8c0.395-0.374,0.868-0.649,1.253-1.033c0.386-0.384,0.686-0.941,0.566-1.451
												c-0.12-0.51-0.825-0.788-1.185-0.377c0.287-0.327,0.715-0.307,1.075-0.376c0.431-0.082,0.86-0.321,1.195-0.628
												c0.422-0.388,1.368-1.716,0.365-1.871c0.289-0.14,0.573-0.265,0.818-0.489c0.453-0.415,0.624-1.232,0.183-1.594
												c0.439-0.095,0.805-0.543,0.819-1.004c0.014-0.464-0.32-0.855-0.745-0.933c0.84-0.279,0.045-1.306-0.305-1.612
												c-0.394-0.346-1.021-0.472-1.474-0.14c-0.5,0.367-0.558,1.037-0.814,1.558c-0.23,0.469-0.703,0.887-1.066,1.262
												c-0.857,0.889-1.84,1.634-2.883,2.254c-2.136,1.271-4.494,2.035-6.839,2.609c-2.392,0.586-5.086,0.958-6.988-0.452
												c-1.107-0.821-1.764-2.124-2.566-3.266c-0.802-1.142-1.915-2.211-3.321-2.222c-0.967-0.007-1.906,0.494-2.741,1.069
												c-1.091,0.752-2.129,1.706-2.642,2.947c-1.002,2.425,0.352,3.484,1.521,5.17
												C413.154,319.565,414.168,322.018,414.641,324.62z"/>
										</g>
									</g>
								</g>
							</g>
						</g>
					</g>
					<g>
						<g>
							<g>
								<g>
									<path style="fill:#E87578;" d="M307.947,270.91c3.607-2.85,7.81-5.158,11.651-7.57c5.543-3.48,11.159-6.841,16.845-10.082
										c11.371-6.481,23.018-12.479,34.9-17.969c2.112-0.976,4.371-1.959,6.679-1.665c3.132,0.399,5.56,3.14,6.553,6.137
										c2.029,6.123,1.177,12.867-2.85,17.867c-2.664,3.308-6.093,5.897-9.422,8.536c-8.195,6.497-15.987,13.502-23.32,20.958
										c-6.341,6.448-12.131,15.861-20.933,19.098c-8.459,3.111-18.689-0.493-23.902-7.845c-3.439-4.85-5.922-11.955-4.54-17.974
										c0.597-2.6,3.474-4.92,5.282-6.767C305.839,272.667,306.866,271.764,307.947,270.91z"/>
								</g>
							</g>
						</g>
					</g>
					<g>
						<g>
							<g>
								<g>
									<path style="fill:#E87578;" d="M372.475,243.018c1.007-4.556,5.624-10.2,10.643-6.599c1.153,0.827,2.011,1.994,2.823,3.159
										c8.078,11.594,12.301,24.778,17.486,37.76c4.438,11.113,9.67,21.845,14.789,32.654c0.843,1.78,1.697,3.838,0.922,5.649
										c-0.954,2.229-4.032,2.838-6.269,1.902c-2.128-0.89-3.101-2.679-4.756-4.105c-1.438-1.239-3.07-2.23-4.501-3.542
										c-3.48-3.189-6.777-6.585-9.835-10.181c-7.462-8.774-13.194-19.014-16.782-29.959c-0.872-2.657-1.616-5.356-2.229-8.085
										c-1.186-5.287-3.03-10.644-2.648-16.154C372.175,244.687,372.292,243.844,372.475,243.018z"/>
								</g>
							</g>
						</g>
					</g>
				</g>
				<g>
					<g>
						<g>
							<g>
								<g>
									<g>
										<g>
											<g>
												<g>
													<g>
														<path style="fill:#E87578;" d="M222.684,240.298c-0.775,1.433-1.372,3.003-1.784,4.653
															c-1.495,5.989-4.281,12.814-4.299,18.971c-0.024,7.82,3.924,15.232,9.258,20.951
															c5.334,5.718,11.999,9.993,18.588,14.206c4.442,2.84,8.884,5.68,13.326,8.52c2.632,1.683,5.755,3.435,8.709,2.419
															c3.42-1.177,4.659-5.691,3.509-9.119c-1.15-3.429-3.964-5.991-6.668-8.392c-3.27-2.904-6.54-5.807-9.81-8.711
															c-1.14-1.012-2.332-2.105-2.753-3.571c-1.028-3.58,2.851-6.471,4.554-9.784c1.553-3.022,0.718-5.521,0.232-8.612
															c-0.499-3.168,0.607-6.411,1.35-9.449c0.797-3.26,1.278-6.886-0.353-9.818c-1.464-2.633-4.312-4.134-7.019-5.454
															c-4.651-2.268-9.552-4.478-14.726-4.423C229.193,232.746,225.085,235.862,222.684,240.298z"/>
													</g>
												</g>
											</g>
										</g>
									</g>
								</g>
							</g>
						</g>
					</g>
				</g>
				<g>
					<path style="fill:#FFFFFF;" d="M223.02,240.901c4.839-3.398,11.092-4.287,16.764-5.409c7.064-1.397,14.258-2.604,21.484-2.072
						c3.321,0.23,6.8,0.944,9.273,3.172c2.352,2.12,3.434,5.271,4.425,8.278c2.74,0.866,30.686,6.379,33.137,7.878
						c0.96,0.587-8.71,19.878-9.076,21.263c-1.227,4.648-4.679,16.868-6.502,21.317c-0.699,1.706-18.761-14.298-20.19-13.137
						c-1.226,0.996-3.467,0.331-5.259,0.13c-4.777-0.537-9.507-1.49-14.119-2.848c-0.44-0.13-0.91-0.284-1.181-0.655
						c-0.438-0.599-0.154-1.432,0.1-2.13c4.06-11.17-4.117-20.847-15.328-21.743c-3.447-0.275-6.914,0.22-10.221,1.197
						c-2.765,0.817-6.848,2.188-8.604,4.596c-1.067,1.462-1.476,3.386-1.096,5.156c-1.107-0.93-1.587-2.465-1.47-3.905
						s0.766-2.793,1.596-3.975c3.162-4.501,9.865-6.751,14.685-9.072c1.229-0.592,2.484-1.202,3.438-2.176
						c4.427-4.518-2.432-6.429-5.89-5.93c-2.413,0.348-4.825,0.696-7.238,1.044C222.16,241.533,222.585,241.206,223.02,240.901z"/>
				</g>
				<g>
					<g>
						<g>
							<g>
								<path style="fill:#381905;" d="M203.863,240.333c-0.022-0.062-0.036-0.126-0.061-0.187c-1.179-2.87-6.895-4.149-9.642-5.41
									c-2.963-1.36-3.662-1.447-4.752-4.31c-3.532-9.271-14.326-2.627-15.009,4.732c-0.462,4.978,2.299,9.865,6.207,12.982
									c2.579,2.057,5.614,3.444,8.747,4.426c2.641,0.828,5.385,2.128,8.123,2.415c3.941,0.413,7.91,0.129,11.868,0.053
									c1.528-3.189,2.972-6.243,5.239-8.557C210.822,244.827,207.292,242.661,203.863,240.333z"/>
								<g>
									<g>
										<g>
											<path style="fill:#E87578;" d="M218.962,253.16c-0.304-0.145-0.592-0.315-0.86-0.514
												c-3.107-2.302-5.968-4.786-9.247-6.911c-3.471-2.249-7.088-4.334-10.432-6.773c-0.505-0.368-1.036-0.772-1.253-1.359
												c-0.679-1.839,6.786-2.408,8.245-2.816c1.648-0.46,2.194-1.071,3.79-0.349c1.581,0.715,3.067,2.704,4.61,3.667
												c3.381,2.11,7.408,4.378,11.423,3.036c1.839-0.615,3.523-1.618,5.328-2.328c2.696-1.061,18.865-2.171,16.425,3.83
												c-1.11,2.732-4.646,3.993-6.857,5.619c-3.189,2.345-7.352,3.732-11.214,4.672
												C226.119,253.618,221.824,254.522,218.962,253.16z"/>
										</g>
									</g>
								</g>
								<g>
									<g>
										<g>
											<path style="fill:#381905;" d="M223.042,241.506c-3.267,0.122-6.463-1.674-9.227-3.399
												c-1.543-0.963-3.029-2.952-4.61-3.667c-1.596-0.722-2.142-0.112-3.791,0.349c-1.459,0.407-8.924,0.977-8.245,2.816
												c0.217,0.587,0.747,0.99,1.253,1.359c1.071,0.781,2.935,1.982,5.088,3.354
												C209.853,244.229,216.938,243.928,223.042,241.506z"/>
										</g>
									</g>
								</g>
								<g>
									<g>
										<g>
											<path style="fill:#E87578;" d="M186.298,228.599c-0.614-5.102,9.776-13.268,23.862-6.573
												c14.086,6.696,12.741,10.503,7.527,15.37c-5.214,4.867-12.738,4.403-12.738,4.403s-4.199,4.705-6.793,3.876
												c-2.594-0.829-2.67-4.232,0.57-5.193C198.726,240.482,187.599,239.415,186.298,228.599z"/>
										</g>
									</g>
								</g>
								<g>
									<g>
										<g>
											<path style="fill:#E87578;" d="M205.625,222.283c3.504,0.551,6.039-1.636,6.792-1.224
												c0.753,0.412,2.126,4.572,2.126,4.572"/>
										</g>
									</g>
								</g>
								<g>
									<g>
										<g>
											<path style="fill:#381905;" d="M192.608,224.615c1.705-1.433,3.325-3.013,5.301-4.041
												c2.796-1.453,6.212-1.66,9.163-0.555c-0.161-2.846-2.13-5.425-4.697-6.665c-2.567-1.24-5.628-1.232-8.335-0.338
												c-2.707,0.894-5.083,2.615-7.085,4.645c-1.808,1.832-4.553,4.538-4.971,7.22c-0.507,3.247,4.06,3.271,6.124,2.546
												C189.79,226.836,191.256,225.752,192.608,224.615z"/>
										</g>
									</g>
								</g>
								<g>
									<g>
										<g>
											<path style="fill:#381905;" d="M202.065,221.088c-0.138,0.298-0.136,0.639-0.13,0.968
												c0.009,0.563,0.018,1.127,0.027,1.69c0.161,0.038,0.33-0.055,0.429-0.188c0.099-0.132,0.143-0.297,0.182-0.458
												c0.116-0.471,0.219-0.951,0.44-1.382c0.171-0.334,0.424-0.643,0.756-0.827c0.18-0.1,0.791-0.131,0.833-0.351
												c0.039-0.202-0.314-0.375-0.46-0.416c-0.333-0.094-0.782,0.074-1.096,0.185
												C202.648,220.45,202.249,220.691,202.065,221.088z"/>
										</g>
									</g>
								</g>
								<g>
									<g>
										<g>
											<path style="fill:#381905;" d="M214.839,224.592c-0.022,0.135,0.001,0.273,0.016,0.41
												c0.102,0.907-0.142,1.849-0.672,2.593c-0.095,0.134-0.2,0.321-0.092,0.445c0.073,0.084,0.203,0.08,0.314,0.069
												c0.593-0.058,1.191-0.117,1.758-0.298c0.568-0.181,1.11-0.495,1.461-0.976c0.227-0.312,0.368-0.723,0.238-1.086
												c-0.13-0.363-0.609-0.599-0.927-0.381c-0.149,0.102-0.276,0.292-0.454,0.262c-0.105-0.018-0.179-0.11-0.242-0.196
												C216.085,225.226,215.012,223.517,214.839,224.592z"/>
										</g>
									</g>
								</g>
								<g>
									<g>
										<g>
											<path style="fill:#381905;" d="M200.667,242.949c-0.02,0.089-0.084,0.166-0.178,0.197
												c-0.184,0.063-0.392,0.036-0.568-0.072c-0.177-0.109-0.293-0.281-0.32-0.473c-0.011-0.08,0.015-0.161,0.012-0.237
												c-0.678,0.099-1.317,0.526-1.625,1.136c-0.067,0.134-0.231,0.188-0.365,0.12c-0.133-0.068-0.192-0.232-0.12-0.365
												c0.515-1.021,1.708-1.618,2.835-1.419c0.141,0.025,0.239,0.157,0.223,0.3c-0.023,0.154-0.143,0.248-0.286,0.239
												c-0.029-0.001-0.067,0.019-0.096,0.049c-0.032,0.033-0.047,0.073-0.041,0.1c0.004,0.031,0.03,0.063,0.067,0.086
												c0.037,0.023,0.079,0.031,0.108,0.021c0.142-0.048,0.297,0.027,0.345,0.17
												C200.676,242.851,200.678,242.902,200.667,242.949z"/>
										</g>
									</g>
								</g>
							</g>
						</g>
					</g>
					<path style="fill:#381905;" d="M207.734,222.989c0.287,0.181,0.593,0.472,0.508,0.8c-0.101,0.391-0.648,0.439-1.031,0.311
						c-0.402-0.135-0.952-0.428-1.179-0.81c-0.166-0.28-0.133-0.765,0.213-0.887C206.664,222.255,207.391,222.773,207.734,222.989z"
						/>
					<path style="fill:#381905;" d="M247.816,266.976c0.369-4.245-1.991-8.392-5.303-11.073c-3.312-2.68-7.466-4.094-11.613-5.072
						c-4.147-0.978-8.391-1.575-12.447-2.88c-1.319-0.424-2.607-0.921-3.87-1.475c-2.267,2.314-3.711,5.367-5.239,8.557
						c3.023-0.058,6.04,0.005,9.033,0.595c8.423,1.661,16.021,7.893,18.434,16.133c0.773,2.639,1.037,5.442,2.185,7.941
						c1.148,2.499,3.548,4.731,6.289,4.519c-1.774-2.442-1.337-5.847-0.309-8.685C246.004,272.698,247.555,269.982,247.816,266.976z
						"/>
					<path style="fill:#381905;" d="M189.316,227.585c0.82-0.363,1.63-0.91,2.523-0.824c1.14,0.11,1.9,1.186,2.532,2.141
						c6.11,9.231,16.534,16.21,26.982,19.87c-3.878,1.9-10.283,1.727-13.596-1.043c-1.815-1.518-3.122-3.583-4.993-5.031
						c-1.987-1.538-4.474-2.275-6.939-2.764c-2.465-0.489-4.982-0.765-7.376-1.529c-2.394-0.764-4.714-2.091-6.076-4.203
						c-0.946-1.467-2.035-5.067,0.045-6.102C184.426,227.101,187.101,228.565,189.316,227.585z"/>
					<path style="fill:#381905;" d="M180.356,228.333c-1.162-1.347-1.721-3.195-1.5-4.96s1.219-3.418,2.678-4.436
						c1.075-0.75,2.372-1.163,3.367-2.015c0.808-0.692,1.363-1.625,2.033-2.452c2.235-2.758,5.9-4.288,9.432-3.937
						s6.825,2.571,8.474,5.715c-3.177-1.873-7.315-1.402-10.592,0.289c-3.277,1.691-5.869,4.435-8.351,7.161
						c-0.897,0.985-1.804,1.997-2.347,3.214c-0.543,1.217-0.674,2.693-0.017,3.853"/>
				</g>
				<g>
					<path style="fill:#FFFFFF;" d="M309.52,269.765c-0.264,0.211-0.521,0.426-0.769,0.647c-2.91,2.581-5.031,6.1-6.644,9.6
						c-1.256,2.726-2.254,5.683-2.002,8.673c0.221,2.623,1.394,5.081,2.852,7.273c3.379,5.08,8.423,9.032,14.164,11.098
						c-5.581,0.184-11.406-1.711-15.565-5.468c-3.556-3.539-6.241-7.325-9.129-11.491c3.681-6.23,7.151-12.584,10.402-19.047
						c3.161-6.284,9.804-12.072,16.693-7.438C316.326,265.607,312.484,267.395,309.52,269.765z"/>
				</g>
				<g>
					<g>
						<g>
							<path style="fill:#E87578;" d="M321.123,315.746c-0.489-0.626-1.178-1.117-1.91-1.442c-1.167-0.519-2.454-0.687-3.715-0.892
								c-17.192-2.786-31.66-14.714-49.52-13.707c-2.374,0.134-6.911,0.594-8.209,3.049c-1.303,2.464,1.397,6.104,3.248,7.634
								c2.414,1.996,5.483,3.011,8.523,3.765c8.702,2.159,17.698,2.541,26.568,3.598c3.982,0.475,7.955,1.079,11.849,2.05
								c2.959,0.737,6.834,2.407,9.855,1.982c2.309-0.326,4.514-2.524,3.94-4.784C321.634,316.537,321.414,316.117,321.123,315.746z
								"/>
						</g>
					</g>
				</g>
				<g>
					<g>
						<path style="fill:#E87578;" d="M340.76,320.349c-0.032-0.554-0.541-0.987-1.081-1.117c-1.251-0.302-2.695-0.238-4.012-0.512
							c-1.063-0.221-2.173-0.413-3.204-0.76c-1.469-0.493-2.89-1.129-4.234-1.899c-0.754-0.432-2.668-1.146-2.895-2.068
							c-0.081-0.331,0.009-0.689,0.193-0.977c0.43-0.675,1.203-1.013,1.77-1.545c0.565-0.528,0.728-1.492,0.487-2.218
							c-0.15-0.454-0.518-0.853-0.986-0.95c-0.781-0.163-1.46,0.492-2.138,0.915c-0.982,0.613-2.17,0.772-3.304,1.005
							c-1.143,0.234-2.188,0.765-3.174,1.373c-0.511,0.315-1.014,0.645-1.515,0.977c-0.471,0.312-0.88,0.62-1.458,0.727
							c-0.517,0.095-1.051,0.059-1.569-0.033c-2.027-0.358-4.363,1.376-4.126,3.64c0.138,1.318,1.046,2.451,2.13,3.213
							c1.084,0.762,2.346,1.22,3.566,1.737c1.989,0.843,3.843,2.017,5.742,3.054c0.145,0.079,0.29,0.158,0.438,0.235
							c0.372,0.193,0.761,0.339,1.159,0.443c1.786,0.913,4.338,0.814,4.366-0.97c0.177,0.061,0.344,0.146,0.523,0.202
							c0.887,0.282,1.825,0.509,2.743,0.354c0.683-0.116,1.351-0.493,1.735-1.051c0.619,0.071,1.24,0.084,1.855-0.014
							c1.159-0.186,2.273-0.846,2.83-1.862c0.816,0.06,1.67-0.023,2.679-0.372C340.001,321.628,340.804,321.112,340.76,320.349z"/>
					</g>
				</g>
			</g>
			<g>
				<g>
					<path style="fill:#E87578;" d="M296.942,246.532c1.523,2.535,2.009,5.645,1.472,8.552c-0.046,0.252-0.108,0.517-0.286,0.7
						c-0.339,0.349-0.962,0.229-1.302-0.119c-0.34-0.347-0.47-0.843-0.587-1.315c-0.418-1.686-0.836-3.371-1.254-5.056
						c-0.215-0.108-0.271-0.203-0.486-0.31c-0.237,2.197-0.555,4.502-0.792,6.699c-0.065,0.608-0.141,1.244-0.485,1.75
						c-0.344,0.506-1.049,0.823-1.586,0.531c-0.591-0.32-0.662-1.124-0.66-1.796c0.008-2.716,0.016-5.433,0.024-8.149
						c0.001-0.279-0.413-0.239-0.691-0.22c-0.351,2.196-0.633,4.361-0.984,6.556c-0.123,0.768-0.259,1.57-0.724,2.194
						c-0.465,0.624-1.368,0.996-2.045,0.614c-0.418-0.236-0.662-0.706-0.741-1.179c-0.079-0.474-0.016-0.958,0.047-1.434
						c0.309-2.334,0.618-4.669,0.926-7.003c-0.203-0.345-0.54-0.602-0.934-0.671c-0.912,1.77-1.66,3.581-2.572,5.351
						c-0.212,0.412-0.432,0.833-0.778,1.141c-0.346,0.308-0.852,0.48-1.282,0.309c-0.456-0.182-0.704-0.702-0.713-1.193
						c-0.009-0.491,0.172-0.964,0.351-1.421c0.416-1.066,0.832-2.133,1.249-3.2c0.307-0.787,0.909-1.84,0.194-2.354
						c-0.715-0.514-2.307-0.62-3.168-0.852c-0.292-0.079-0.621-0.188-0.739-0.466c-0.083-0.196-0.033-0.425,0.063-0.614
						c0.204-0.398,0.599-0.671,1.02-0.821c0.421-0.15,0.872-0.193,1.317-0.233c1.263-0.116,2.536-0.236,3.805-0.142
						c1.349,0.1,1.917-0.097,3.195-0.573C291.327,240.491,295.233,243.688,296.942,246.532z"/>
				</g>
			</g>
			<g>
				<path style="fill:#381905;" d="M412.765,299.769c-0.09,0-0.175-0.054-0.211-0.141c-0.272-0.648-27.274-64.924-34.559-65.776
					c-0.102-0.013-0.213-0.018-0.333-0.018c-8.407,0-57.444,29.4-57.946,29.703c-0.108,0.063-0.249,0.029-0.314-0.079
					c-0.065-0.109-0.031-0.249,0.078-0.315c2.051-1.232,49.642-29.765,58.211-29.765c0.129,0,0.247,0.007,0.358,0.02
					c7.548,0.882,33.812,63.393,34.928,66.055c0.048,0.116-0.005,0.251-0.123,0.299
					C412.824,299.764,412.796,299.769,412.765,299.769z"/>
			</g>
		</g>
		<g>
			<path style="fill:#595668;" d="M429.508,329.563c-0.75,0-1.455-0.464-1.724-1.21c-0.204-0.566-20.937-56.688-65.899-71.735
				c-24.966-8.357-52.86-2.658-82.894,16.947c-0.847,0.551-1.982,0.315-2.536-0.533c-0.553-0.848-0.315-1.983,0.533-2.538
				c31.027-20.248,59.99-26.083,86.079-17.346c46.65,15.625,67.956,73.38,68.165,73.961c0.344,0.951-0.15,2.001-1.101,2.345
				C429.925,329.527,429.714,329.563,429.508,329.563z"/>
		</g>
		<g>
			<path style="fill:#595668;" d="M336.678,315.406c-0.996,0-1.813-0.798-1.832-1.799l-1.178-62.454
				c-0.019-1.011,0.787-1.847,1.798-1.867c0.012,0,0.024,0,0.036,0c0.996,0,1.813,0.798,1.832,1.799l1.178,62.454
				c0.019,1.011-0.787,1.847-1.798,1.867C336.702,315.406,336.69,315.406,336.678,315.406z"/>
		</g>
	</g>
</g>
</svg>
